<svg width="30" height="30" viewBox="0 0 30 30" fill="none" xmlns="http://www.w3.org/2000/svg">
<path d="M7.70194 22.288C7.99976 22.5737 8.39549 22.7348 8.80817 22.7383C9.22085 22.7418 9.61928 22.5876 9.92194 22.307L15.0019 17.239L20.0679 22.307C20.3684 22.592 20.7682 22.7485 21.1823 22.7431C21.5964 22.7377 21.9921 22.5708 22.2849 22.278C22.574 21.9826 22.7375 21.5868 22.7412 21.1735C22.7449 20.7603 22.5886 20.3616 22.3049 20.061L17.2459 14.993L22.3019 9.93401C22.5856 9.63342 22.7419 9.23474 22.7382 8.82148C22.7345 8.40822 22.571 8.01242 22.2819 7.71701C21.9877 7.42676 21.5926 7.26165 21.1793 7.25624C20.766 7.25083 20.3667 7.40556 20.0649 7.68801L15.0019 12.753L9.92194 7.68801C9.61931 7.40846 9.22144 7.25489 8.80948 7.2586C8.39751 7.26232 8.00248 7.42305 7.70494 7.70801C7.42218 8.00668 7.26294 8.4013 7.25923 8.81257C7.25552 9.22385 7.40761 9.62128 7.68494 9.92501L12.7629 14.993L7.68494 20.071C7.40721 20.3744 7.25458 20.7716 7.25774 21.1828C7.26089 21.5941 7.41959 21.989 7.70194 22.288Z" fill="black"/>
</svg>
