<svg width="18" height="23" viewBox="0 0 18 23" fill="none" xmlns="http://www.w3.org/2000/svg">
<path d="M9.46502 15.093C10.6954 15.093 11.8753 14.6043 12.7453 13.7343C13.6153 12.8643 14.104 11.6844 14.104 10.454V4.72402C14.104 3.49368 13.6153 2.31373 12.7453 1.44375C11.8753 0.573772 10.6954 0.085022 9.46502 0.085022C8.23555 0.0863471 7.05689 0.575683 6.18799 1.44552C5.31909 2.31536 4.83102 3.49455 4.83103 4.72402V10.455C4.83129 11.6843 5.31947 12.8633 6.18834 13.7329C7.05721 14.6025 8.23573 15.0917 9.46502 15.093ZM17.196 8.36202H16.423C16.218 8.36202 16.0214 8.44346 15.8764 8.58843C15.7315 8.73339 15.65 8.93001 15.65 9.13502V10.454C15.6492 11.3178 15.4676 12.1719 15.1169 12.9614C14.7663 13.7508 14.2543 14.4581 13.614 15.0379C12.9737 15.6177 12.2191 16.0571 11.3988 16.3278C10.5785 16.5986 9.71068 16.6947 8.85103 16.61C7.29419 16.4118 5.86526 15.646 4.838 14.4595C3.81075 13.273 3.25742 11.7492 3.28403 10.18V9.13502C3.28403 8.93001 3.20258 8.73339 3.05762 8.58843C2.91265 8.44346 2.71604 8.36202 2.51103 8.36202H1.73803C1.53301 8.36202 1.3364 8.44346 1.19143 8.58843C1.04647 8.73339 0.965025 8.93001 0.965025 9.13502V10.075C0.934711 12.1755 1.65935 14.217 3.00712 15.8283C4.3549 17.4397 6.23627 18.5137 8.30903 18.855V20.505H5.60403C5.39901 20.505 5.2024 20.5865 5.05743 20.7314C4.91247 20.8764 4.83103 21.073 4.83103 21.278V22.051C4.83103 22.256 4.91247 22.4527 5.05743 22.5976C5.2024 22.7426 5.39901 22.824 5.60403 22.824H13.335C13.54 22.824 13.7367 22.7426 13.8816 22.5976C14.0266 22.4527 14.108 22.256 14.108 22.051V21.278C14.108 21.073 14.0266 20.8764 13.8816 20.7314C13.7367 20.5865 13.54 20.505 13.335 20.505H10.629V18.873C12.6626 18.5913 14.5259 17.5841 15.8755 16.037C17.2251 14.4898 17.97 12.5071 17.973 10.454V9.13502C17.973 8.93001 17.8916 8.73339 17.7466 8.58843C17.6017 8.44346 17.405 8.36202 17.2 8.36202H17.196Z" fill="white"/>
</svg>
