<svg width="82" height="59" viewBox="0 0 82 59" fill="none" xmlns="http://www.w3.org/2000/svg">
<path d="M0 19.1758V29.4998C2.81361 29.4749 5.56319 30.3395 7.85626 31.9701C10.1493 33.6007 11.8688 35.914 12.769 38.5798H68.921C69.8213 35.914 71.5407 33.6007 73.8337 31.9701C76.1268 30.3395 78.8764 29.4749 81.69 29.4998V19.1758H0Z" fill="white"/>
<g filter="url(#filter0_b_12_311)">
<path d="M46.345 0H35.345C22.0901 0 11.345 10.7452 11.345 24V35C11.345 48.2548 22.0901 59 35.345 59H46.345C59.5998 59 70.345 48.2548 70.345 35V24C70.345 10.7452 59.5998 0 46.345 0Z" fill="#3038FF" fill-opacity="0.8"/>
</g>
<path d="M40.81 34.093C42.0403 34.093 43.2203 33.6043 44.0903 32.7343C44.9602 31.8643 45.449 30.6844 45.449 29.454V23.724C45.449 22.4937 44.9602 21.3137 44.0903 20.4438C43.2203 19.5738 42.0403 19.085 40.81 19.085C39.5805 19.0863 38.4019 19.5757 37.533 20.4455C36.6641 21.3154 36.176 22.4945 36.176 23.724V29.455C36.1763 30.6843 36.6644 31.8633 37.5333 32.7329C38.4022 33.6025 39.5807 34.0917 40.81 34.093V34.093ZM48.541 27.362H47.768C47.563 27.362 47.3664 27.4435 47.2214 27.5884C47.0764 27.7334 46.995 27.93 46.995 28.135V29.454C46.9941 30.3178 46.8125 31.1719 46.4619 31.9614C46.1113 32.7508 45.5993 33.4581 44.959 34.0379C44.3186 34.6177 43.5641 35.0571 42.7438 35.3278C41.9235 35.5986 41.0556 35.6947 40.196 35.61C38.6392 35.4118 37.2102 34.646 36.183 33.4595C35.1557 32.273 34.6024 30.7492 34.629 29.18V28.135C34.629 27.93 34.5476 27.7334 34.4026 27.5884C34.2576 27.4435 34.061 27.362 33.856 27.362H33.083C32.878 27.362 32.6814 27.4435 32.5364 27.5884C32.3914 27.7334 32.31 27.93 32.31 28.135V29.075C32.2797 31.1755 33.0043 33.217 34.3521 34.8283C35.6999 36.4397 37.5812 37.5137 39.654 37.855V39.505H36.949C36.744 39.505 36.5474 39.5865 36.4024 39.7314C36.2574 39.8764 36.176 40.073 36.176 40.278V41.051C36.176 41.256 36.2574 41.4527 36.4024 41.5976C36.5474 41.7426 36.744 41.824 36.949 41.824H44.68C44.885 41.824 45.0816 41.7426 45.2266 41.5976C45.3716 41.4527 45.453 41.256 45.453 41.051V40.278C45.453 40.073 45.3716 39.8764 45.2266 39.7314C45.0816 39.5865 44.885 39.505 44.68 39.505H41.974V37.873C44.0076 37.5913 45.8709 36.5841 47.2205 35.037C48.5701 33.4898 49.315 31.5071 49.318 29.454V28.135C49.318 27.93 49.2366 27.7334 49.0916 27.5884C48.9466 27.4435 48.75 27.362 48.545 27.362H48.541Z" fill="white"/>
<defs>
<filter id="filter0_b_12_311" x="1.34497" y="-10" width="79" height="79" filterUnits="userSpaceOnUse" color-interpolation-filters="sRGB">
<feFlood flood-opacity="0" result="BackgroundImageFix"/>
<feGaussianBlur in="BackgroundImage" stdDeviation="5"/>
<feComposite in2="SourceAlpha" operator="in" result="effect1_backgroundBlur_12_311"/>
<feBlend mode="normal" in="SourceGraphic" in2="effect1_backgroundBlur_12_311" result="shape"/>
</filter>
</defs>
</svg>
