<svg width="33" height="19" viewBox="0 0 33 19" fill="none" xmlns="http://www.w3.org/2000/svg">
<path d="M2.00208 18.9988C2.23983 19.0028 2.47668 18.9694 2.70352 18.9001C2.90748 18.8352 3.09529 18.7297 3.25497 18.5902C3.42754 18.4352 3.57113 18.2522 3.67937 18.0494C3.81409 17.798 3.92087 17.5332 3.99788 17.2597L4.98607 14.3799H11.794L12.7884 17.2984C12.8629 17.5664 12.968 17.8255 13.1016 18.0709C13.2102 18.2709 13.3552 18.45 13.5295 18.5997C13.696 18.7378 13.8901 18.8409 14.0995 18.9027C14.3395 18.971 14.5888 19.0037 14.8389 18.9997C15.1098 19.0017 15.3788 18.956 15.633 18.8649C15.8645 18.7815 16.0766 18.654 16.2568 18.4898C16.4326 18.3282 16.5717 18.1326 16.6653 17.9155C16.7639 17.6834 16.8137 17.4345 16.8117 17.1833C16.8117 17.0872 16.8117 16.9936 16.7985 16.9001C16.7853 16.8065 16.7756 16.7112 16.7562 16.6125C16.7368 16.5138 16.7112 16.4125 16.6794 16.3035C16.6476 16.1945 16.6088 16.0795 16.5638 15.955L11.3811 2.18405C11.2578 1.83919 11.0922 1.51005 10.8879 1.20379C10.7127 0.94235 10.4924 0.712349 10.2367 0.523953C9.98546 0.343404 9.70225 0.209276 9.40118 0.128241C9.06043 0.0387184 8.70856 -0.00432533 8.35564 0.000342675C8.01186 -0.00259893 7.66948 0.0430865 7.33921 0.135966C7.04213 0.220171 6.76342 0.356617 6.51689 0.538545C6.26348 0.730256 6.04538 0.96246 5.87192 1.22525C5.67024 1.53062 5.5073 1.85861 5.38665 2.20208L0.259511 15.9541C0.21716 16.0726 0.180103 16.1885 0.147457 16.2975C0.114811 16.4065 0.0883418 16.519 0.0662839 16.6228C0.044226 16.7267 0.0283444 16.8263 0.0168743 16.919C0.00622903 17.0044 0.000631787 17.0904 0.000110233 17.1765C-0.00261742 17.4341 0.045299 17.69 0.141281 17.9301C0.229724 18.1474 0.366522 18.3429 0.541852 18.5027C0.723532 18.6651 0.938115 18.7888 1.17183 18.8658C1.43892 18.9552 1.71961 19.0002 2.00208 18.9988ZM5.84457 11.3807L8.28152 3.80124H8.36975L10.8773 11.3807H5.84457ZM25.9728 18.4194C26.216 18.4228 26.4577 18.3811 26.6849 18.2967C26.8881 18.2193 27.0709 18.0985 27.2195 17.943C27.37 17.7832 27.4845 17.5947 27.5557 17.3893C27.6364 17.1498 27.6761 16.8989 27.6731 16.6469L27.6783 12.9859H31.2173C31.4673 12.9887 31.7161 12.9507 31.9532 12.8734C32.1615 12.8051 32.3527 12.6949 32.5143 12.5498C32.6715 12.4061 32.7939 12.2302 32.8725 12.0348C33.0407 11.5919 33.0425 11.1055 32.8778 10.6614C32.8013 10.4662 32.6807 10.2902 32.5249 10.1464C32.3654 10.0021 32.1762 9.89237 31.9699 9.82447C31.7337 9.74751 31.4858 9.70979 31.2367 9.71288H27.6828L27.688 6.02186C27.6915 5.771 27.6525 5.5213 27.5725 5.2828C27.5022 5.07468 27.388 4.88316 27.2372 4.72056C27.0888 4.56373 26.9061 4.4414 26.7025 4.36262C26.2421 4.19549 25.7353 4.19549 25.2749 4.36262C25.0698 4.44145 24.8854 4.56372 24.7349 4.72056C24.5821 4.88275 24.4658 5.07427 24.3935 5.2828C24.3117 5.52096 24.2714 5.77077 24.2744 6.02186V9.71288H20.701C20.4542 9.70987 20.2087 9.7476 19.9748 9.82447C19.7694 9.8926 19.5812 10.0023 19.4225 10.1464C19.2669 10.2903 19.1464 10.4663 19.0696 10.6614C18.985 10.8791 18.9431 11.1102 18.9461 11.3429C18.943 11.5772 18.9846 11.8101 19.0687 12.0296C19.1456 12.2247 19.2662 12.4006 19.4216 12.5447C19.5797 12.6894 19.7677 12.7997 19.9731 12.8683C20.2065 12.9455 20.4518 12.9835 20.6983 12.9807H24.2664V16.6417C24.2627 16.8937 24.3018 17.1446 24.382 17.3842C24.4521 17.5918 24.5667 17.7825 24.7182 17.9439C24.8676 18.0996 25.0513 18.2205 25.2555 18.2975C25.4846 18.3816 25.728 18.4229 25.9728 18.4194Z" fill="white"/>
</svg>
