<svg width="15" height="16" viewBox="0 0 15 16" fill="none" xmlns="http://www.w3.org/2000/svg">
<path d="M8.73 1.13598L5.43 4.43598H1.641C1.52387 4.43584 1.40787 4.45883 1.29964 4.50363C1.19142 4.54842 1.0931 4.61413 1.01032 4.697C0.927546 4.77987 0.861941 4.87827 0.81727 4.98654C0.772598 5.09482 0.749739 5.21085 0.750002 5.32798V10.672C0.750002 10.9083 0.843875 11.1349 1.01097 11.302C1.17807 11.4691 1.40469 11.563 1.641 11.563H5.428L8.728 14.863C8.8525 14.9879 9.01125 15.073 9.18415 15.1076C9.35706 15.1422 9.53635 15.1247 9.69931 15.0574C9.86228 14.99 10.0016 14.8758 10.0996 14.7292C10.1977 14.5827 10.25 14.4103 10.25 14.234V1.76598C10.2498 1.58997 10.1975 1.41796 10.0996 1.27167C10.0017 1.12537 9.86275 1.01133 9.70016 0.943937C9.53756 0.876545 9.35865 0.85882 9.18599 0.892997C9.01333 0.927174 8.85466 1.01172 8.73 1.13598ZM13.302 5.14698C13.0948 5.03391 12.8513 5.00736 12.6247 5.07311C12.398 5.13887 12.2065 5.29159 12.092 5.49798C11.9781 5.70498 11.9511 5.94875 12.017 6.17566C12.0828 6.40257 12.236 6.59404 12.443 6.70798C12.6763 6.83403 12.8715 7.02043 13.0082 7.24771C13.1449 7.47498 13.218 7.73478 13.22 7.99998C13.2173 8.26462 13.1437 8.52369 13.0069 8.75023C12.8701 8.97676 12.675 9.16246 12.442 9.28798C12.235 9.40191 12.0818 9.59339 12.016 9.8203C11.9501 10.0472 11.9771 10.291 12.091 10.498C12.2051 10.7048 12.3966 10.8578 12.6234 10.9236C12.8503 10.9894 13.0939 10.9626 13.301 10.849C13.8137 10.5691 14.242 10.1567 14.541 9.65485C14.84 9.15302 14.9989 8.58014 15.001 7.99598C14.9983 7.41247 14.8391 6.84038 14.5401 6.3393C14.2411 5.83821 13.8132 5.42647 13.301 5.14698H13.302Z" fill="#4F55EA"/>
</svg>
