<svg width="197" height="117" viewBox="0 0 197 117" fill="none" xmlns="http://www.w3.org/2000/svg">
<path d="M63.3592 88.1329L53.5532 76.9559C54.4647 76.9417 55.3726 76.8389 56.2642 76.6489C57.1443 76.4616 58.004 76.1889 58.8312 75.8349C59.6588 75.4809 60.4502 75.0475 61.1942 74.5409C61.9493 74.0259 62.6526 73.4388 63.2942 72.7879C63.7846 72.2926 64.2382 71.7622 64.6512 71.2009C65.0599 70.645 65.4276 70.0602 65.7512 69.4509C66.0733 68.8443 66.3504 68.215 66.5802 67.5679C66.8111 66.918 66.9945 66.2522 67.1292 65.5759C67.5037 58.6658 69.8253 52.0027 73.826 46.3562C77.8267 40.7097 83.3432 36.3102 89.7382 33.6659C96.0331 31.0824 102.929 30.3263 109.634 31.4846C116.339 32.6428 122.582 35.6683 127.645 40.2139C134.237 46.108 138.478 54.1837 139.59 62.9559L139.597 62.9359C139.597 62.9439 139.597 62.9519 139.597 62.9589C139.597 62.9659 139.597 62.9759 139.597 62.9839C139.597 62.9919 139.597 62.9999 139.597 63.0079C139.597 63.0159 139.597 63.0239 139.597 63.0319C139.62 63.2119 139.641 63.3925 139.661 63.5739C139.681 63.7552 139.7 63.9375 139.716 64.1209C139.734 64.3029 139.75 64.4849 139.764 64.6669C139.779 64.8489 139.792 65.0322 139.804 65.2169C140.129 67.0932 140.828 68.8851 141.858 70.4862C142.889 72.0874 144.231 73.4652 145.804 74.5379C147.296 75.554 148.971 76.2703 150.736 76.6469C151.628 76.8369 152.536 76.9397 153.447 76.9539L139.715 88.1329C138.912 91.5905 137.178 94.7624 134.7 97.3049C132.354 99.5509 129.507 101.206 126.394 102.132C122.912 103.177 119.318 103.808 115.688 104.012C111.818 104.302 107.697 104.333 103.472 104.333C99.2472 104.333 94.8842 104.302 90.6522 104.012C86.5872 103.795 82.5548 103.165 78.6172 102.132C75.0929 101.242 71.8047 99.5944 68.9812 97.3049C66.1926 94.912 64.226 91.7037 63.3592 88.1329Z" fill="white"/>
<path d="M103.503 39C107.326 38.9954 111.111 39.7626 114.627 41.2551C118.937 43.1055 122.727 45.9742 125.665 49.6115C128.603 53.2488 130.601 57.5442 131.485 62.1237C132.369 66.7032 132.112 71.4278 130.736 75.8861C129.36 80.3443 126.908 84.4009 123.592 87.7025C121 90.2859 117.93 92.348 114.551 93.7754C111.053 95.2436 107.295 96 103.498 96C99.7006 96 95.9422 95.2436 92.4448 93.7754C88.1344 91.9389 84.341 89.0848 81.3942 85.4613C78.4474 81.8379 76.4363 77.5546 75.5358 72.9838C74.6353 68.4131 74.8726 63.6931 76.2271 59.2341C77.5815 54.7751 80.0122 50.712 83.3078 47.398C85.901 44.7869 88.9802 42.7006 92.3744 41.2551C95.8915 39.7622 99.6775 38.995 103.503 39Z" fill="#05AA1F"/>
<path d="M48.8442 55.7145L21.5444 47.2233" stroke="#A952CC" stroke-width="6"/>
<path d="M95.1821 24.4196L92.7632 12.2057" stroke="#5667E0" stroke-width="6"/>
<path d="M129.497 116.016L125.762 102.75" stroke="#E23303" stroke-width="3"/>
<path d="M174.669 95.8356L162.931 89.4645" stroke="#1AD0A3" stroke-width="6"/>
<path d="M62.27 43.4421L59.187 34.5798L49.73 37.1647L46.7002 27.988L37.2002 30.6296L34.1763 21.3483L24.707 24.1755L21.729 14.6589L12.2983 17.3591" stroke="#1AD0A3" stroke-width="4"/>
<path d="M142.98 31.2024L150.378 34.6284L154.471 27.1637L162.03 30.8111L166.115 23.2836L173.737 26.9983L177.687 19.3796L185.425 23.2642L189.429 15.7447" stroke="#A952CC" stroke-width="4" stroke-dasharray="235 200"/>
<path d="M60.4702 14.0681C62.9555 14.0681 64.9702 12.0533 64.9702 9.56805C64.9702 7.08277 62.9555 5.06805 60.4702 5.06805C57.9849 5.06805 55.9702 7.08277 55.9702 9.56805C55.9702 12.0533 57.9849 14.0681 60.4702 14.0681Z" stroke="white" stroke-width="3"/>
<path d="M28.9702 76.0681C30.6271 76.0681 31.9702 74.7249 31.9702 73.0681C31.9702 71.4112 30.6271 70.0681 28.9702 70.0681C27.3134 70.0681 25.9702 71.4112 25.9702 73.0681C25.9702 74.7249 27.3134 76.0681 28.9702 76.0681Z" stroke="#1AD0A3" stroke-width="3"/>
<path d="M49.6567 95.3605L40.8267 100.05L45.5167 108.88L54.3467 104.19L49.6567 95.3605Z" stroke="#0046E3" stroke-width="3.9993"/>
<path d="M146.025 5.33582L139.096 9.33582L143.096 16.264L150.025 12.264L146.025 5.33582Z" stroke="#E4C24E" stroke-width="3"/>
<path d="M117.523 1.85907L111.46 5.35907L114.96 11.4212L121.023 7.92125L117.523 1.85907Z" fill="white"/>
<path d="M196.95 71.3342L190.716 71.0075L190.39 77.241L196.623 77.5676L196.95 71.3342Z" fill="#E23303"/>
<path d="M5.10765 96.8019L0 97.9811L1.17919 103.089L6.28684 101.91L5.10765 96.8019Z" fill="#E45038"/>
<path d="M181.265 55.2313L174.669 48.6354L168.074 55.2313L174.669 61.8272L181.265 55.2313Z" fill="#E4C24E"/>
</svg>
